<svg version="1" xmlns="http://www.w3.org/2000/svg" width="354.667" height="354.667" viewBox="0 0 266.000000 266.000000"><path d="M82.5 8.1C81 12.3 79 35 79 47.5c0 30.7 6.1 58.4 18.5 84.4 3 6.2 5.5 11.5 5.5 11.7 0 .2-7.8.4-17.2.4-18.4 0-33.1 1.6-47.4 5-12.4 2.9-25.2 6.9-25.9 8-.8 1.3 4.6 11.8 11.3 22 6.8 10.3 21.8 26.1 32.5 34.1 21.1 15.9 46 27.1 74 33.3 16.2 3.6 28 4.7 47.2 4.7 23.5 0 44.1-3.1 65-9.8l9-2.9 1.4-7.4c1-5.4 1.5-15.1 1.5-34 .1-25.2-.1-27.1-2.7-39.1-14.5-67.6-59.4-120.3-120.8-141.7-18.3-6.4-47.2-11.3-48.4-8.1z"/></svg>